<svg xmlns="http://www.w3.org/2000/svg" xmlns:xlink="http://www.w3.org/1999/xlink" width="224.681" height="44.066" viewBox="0 0 224.681 44.066"><defs><clipPath id="a"><rect width="224.681" height="44.066" fill="none"/></clipPath></defs><g transform="translate(0 0)"><path d="M95.1,23.739H87.513v-8.4H81.423V38.5h6.091V29.064H95.1V38.5h6.092V15.338H95.1Z" transform="translate(-25.942 -4.886)" fill="#6aa71d"/><g transform="translate(0 0)"><g clip-path="url(#a)"><path d="M134.144,18.131a10.4,10.4,0,0,0-3.593-2.614,12.627,12.627,0,0,0-9.58,0,10.359,10.359,0,0,0-3.608,2.614,11.64,11.64,0,0,0-2.24,3.876,14.375,14.375,0,0,0-.772,4.764,13.893,13.893,0,0,0,.773,4.675,11.337,11.337,0,0,0,2.242,3.814,10.344,10.344,0,0,0,3.608,2.564,12.824,12.824,0,0,0,9.573,0,10.41,10.41,0,0,0,3.592-2.564,11.337,11.337,0,0,0,2.242-3.814,13.927,13.927,0,0,0,.773-4.675,14.375,14.375,0,0,0-.772-4.764,11.641,11.641,0,0,0-2.24-3.876M128.2,32.91a5.747,5.747,0,0,1-4.9,0,4.651,4.651,0,0,1-1.621-1.47,6.64,6.64,0,0,1-.936-2.141,10.55,10.55,0,0,1-.3-2.529,11.393,11.393,0,0,1,.305-2.642,6.776,6.776,0,0,1,.937-2.2,4.609,4.609,0,0,1,1.618-1.481,5.747,5.747,0,0,1,4.9,0,4.619,4.619,0,0,1,1.618,1.481,6.8,6.8,0,0,1,.938,2.2,11.429,11.429,0,0,1,.3,2.642,10.55,10.55,0,0,1-.3,2.529,6.639,6.639,0,0,1-.937,2.141,4.653,4.653,0,0,1-1.62,1.47" transform="translate(-36.433 -4.643)" fill="#6aa71d"/><path d="M171.154,36.588a9.078,9.078,0,0,1-.229-1.3c-.049-.478-.085-.95-.1-1.4-.022-.472-.042-.884-.063-1.245a13.86,13.86,0,0,0-.241-1.735,6.224,6.224,0,0,0-.6-1.691,4.842,4.842,0,0,0-1.095-1.376,3.693,3.693,0,0,0-.462-.341,5.272,5.272,0,0,0,1.777-1.817,7.238,7.238,0,0,0,.9-3.661,6.816,6.816,0,0,0-.493-2.588,6.328,6.328,0,0,0-1.432-2.131,6.771,6.771,0,0,0-2.234-1.44,7.711,7.711,0,0,0-2.891-.522H151.546V38.5h6.091V29.952h4.176a3.021,3.021,0,0,1,2.153.609,3.771,3.771,0,0,1,.863,2.151c.119.861.211,1.772.271,2.711a9.163,9.163,0,0,0,.53,2.67l.157.41H172.3l-.745-1.017a2.6,2.6,0,0,1-.4-.9M157.637,20.356h4.636a3.118,3.118,0,0,1,2.063.563,2.342,2.342,0,0,1,.608,1.834,2.487,2.487,0,0,1-.613,1.913,3.06,3.06,0,0,1-2.059.575h-4.636Z" transform="translate(-48.283 -4.887)" fill="#6aa71d"/><path d="M198.581,29.113a5.644,5.644,0,0,1-1.353,3.2,3.816,3.816,0,0,1-2.98,1.143,5.029,5.029,0,0,1-2.45-.549,4.632,4.632,0,0,1-1.621-1.47,6.64,6.64,0,0,1-.936-2.141,10.55,10.55,0,0,1-.3-2.529,11.393,11.393,0,0,1,.3-2.642,6.765,6.765,0,0,1,.937-2.2,4.6,4.6,0,0,1,1.618-1.481,5.017,5.017,0,0,1,2.45-.549,4.38,4.38,0,0,1,2.756.961,4.265,4.265,0,0,1,.934,1.051,3.318,3.318,0,0,1,.461,1.275l.081.546h5.927l-.08-.711a9.489,9.489,0,0,0-1.121-3.615,8.853,8.853,0,0,0-2.264-2.657,9.9,9.9,0,0,0-3.08-1.622,12.372,12.372,0,0,0-8.4.391,10.394,10.394,0,0,0-3.609,2.614,11.644,11.644,0,0,0-2.238,3.876,14.375,14.375,0,0,0-.772,4.764,13.891,13.891,0,0,0,.773,4.675,11.34,11.34,0,0,0,2.242,3.814,10.357,10.357,0,0,0,3.608,2.563,11.877,11.877,0,0,0,4.778.927,11.482,11.482,0,0,0,3.928-.651,9.281,9.281,0,0,0,3.16-1.909A9.575,9.575,0,0,0,203.5,33.17a11.813,11.813,0,0,0,1.008-3.921l.063-.694h-5.924Z" transform="translate(-58.256 -4.643)" fill="#6aa71d"/><path d="M238.72,36.588a9.187,9.187,0,0,1-.229-1.3c-.049-.481-.085-.953-.1-1.4-.022-.474-.042-.884-.063-1.245a14.029,14.029,0,0,0-.241-1.736,6.247,6.247,0,0,0-.6-1.69,4.828,4.828,0,0,0-1.1-1.376,3.689,3.689,0,0,0-.462-.341,5.272,5.272,0,0,0,1.777-1.817,7.242,7.242,0,0,0,.9-3.661,6.826,6.826,0,0,0-.493-2.588,6.329,6.329,0,0,0-1.432-2.131,6.776,6.776,0,0,0-2.232-1.44,7.722,7.722,0,0,0-2.892-.522H219.112V38.5H225.2V29.952h4.175a3.024,3.024,0,0,1,2.155.609,3.78,3.78,0,0,1,.863,2.151c.119.857.21,1.77.271,2.711a9.121,9.121,0,0,0,.531,2.67l.157.41h6.514l-.746-1.017a2.6,2.6,0,0,1-.4-.9M225.2,20.356h4.636a3.12,3.12,0,0,1,2.064.563,2.344,2.344,0,0,1,.608,1.834,2.487,2.487,0,0,1-.613,1.913,3.062,3.062,0,0,1-2.06.575H225.2Z" transform="translate(-69.81 -4.887)" fill="#6aa71d"/><rect width="6.092" height="23.167" transform="translate(172.588 10.451)" fill="#6aa71d"/><path d="M283.3,25.685a8.8,8.8,0,0,0-2.332-1.106c-.739-.218-1.329-.373-1.726-.451q-2.05-.521-3.32-.857a11.809,11.809,0,0,1-1.887-.636,1.56,1.56,0,0,1-.692-.493,1.352,1.352,0,0,1-.151-.707,1.458,1.458,0,0,1,.2-.811,2.015,2.015,0,0,1,.6-.584,2.523,2.523,0,0,1,.844-.341,6.387,6.387,0,0,1,2.546.032,3.344,3.344,0,0,1,1.12.435,2.073,2.073,0,0,1,.716.779,3.267,3.267,0,0,1,.337,1.359l.037.6h5.9v-.638a7.379,7.379,0,0,0-.8-3.539,6.948,6.948,0,0,0-2.143-2.413,8.923,8.923,0,0,0-3.021-1.339,13.26,13.26,0,0,0-6.558.02,8.9,8.9,0,0,0-2.839,1.321,7.185,7.185,0,0,0-2.069,2.271,6.394,6.394,0,0,0-.807,3.249,5.794,5.794,0,0,0,2.305,4.83,8.836,8.836,0,0,0,2.245,1.239,21.371,21.371,0,0,0,2.446.769c.8.225,1.6.433,2.388.619a14.163,14.163,0,0,1,1.994.615,3.88,3.88,0,0,1,1.279.785,1.275,1.275,0,0,1,.374.983,1.478,1.478,0,0,1-.29.965,2.349,2.349,0,0,1-.848.665,4.192,4.192,0,0,1-1.2.359,7.3,7.3,0,0,1-2.967-.109,3.981,3.981,0,0,1-1.335-.605,2.816,2.816,0,0,1-.864-1.018,3.4,3.4,0,0,1-.327-1.575v-.639h-5.929l-.01.63a7.9,7.9,0,0,0,.808,3.8,7.538,7.538,0,0,0,2.259,2.641,9.466,9.466,0,0,0,3.221,1.5,14.576,14.576,0,0,0,3.671.465,14.208,14.208,0,0,0,4.129-.549,9.013,9.013,0,0,0,3.068-1.571,6.724,6.724,0,0,0,1.911-2.455,7.335,7.335,0,0,0,.639-3.052,6,6,0,0,0-.888-3.371,7.2,7.2,0,0,0-2.036-2.067" transform="translate(-84.915 -4.643)" fill="#6aa71d"/><path d="M310.2,15.337H304.38L295.617,38.5h6.222l1.717-4.873h7.277l1.656,4.873h6.377Zm-1.062,13.431h-3.873l1.969-5.545Z" transform="translate(-94.185 -4.887)" fill="#6aa71d"/><path d="M23.535,18.168h9.214V7.96h4.367L29.872.716a2.445,2.445,0,0,0-3.457,0L19.171,7.96h4.364Z" transform="translate(-6.108 0)" fill="#6aa71d"/><path d="M.717,25.449a2.445,2.445,0,0,0,0,3.457l9.311,9.307V16.138Z" transform="translate(0 -5.142)" fill="#fff"/><path d="M32.75,36.157H23.535V47.628H19.171l7.244,7.243a2.446,2.446,0,0,0,3.457,0l7.243-7.243H32.75Z" transform="translate(-6.108 -11.52)" fill="#fff"/><path d="M59.273,25.449l-9.311-9.311V38.213l9.311-9.307a2.446,2.446,0,0,0,0-3.457" transform="translate(-15.918 -5.142)" fill="#fff"/></g></g></g></svg>